G04*
G04 #@! TF.GenerationSoftware,Altium Limited,Altium Designer,18.1.6 (161)*
G04*
G04 Layer_Color=2752767*
%FSTAX24Y24*%
%MOIN*%
G70*
G01*
G75*
%ADD136C,0.0020*%
%ADD137C,0.0027*%
%ADD138C,0.0013*%
D136*
X023542Y005826D02*
Y005986D01*
X023702D01*
Y005826D01*
X023542D01*
X0137Y035353D02*
Y035513D01*
X01386D01*
Y035353D01*
X0137D01*
X033385Y035412D02*
Y035572D01*
X033545D01*
Y035412D01*
X033385D01*
X045207Y036849D02*
X045127Y037009D01*
X045287D01*
X045207Y036849D01*
Y034881D02*
X045127Y035041D01*
X045287D01*
X045207Y034881D01*
X032309Y027991D02*
X032349Y028031D01*
X032389D01*
X032349Y028071D01*
X032389Y028111D01*
X032349D01*
X032309Y028151D01*
X032269Y028111D01*
X032229D01*
X032269Y028071D01*
X032229Y028031D01*
X032269D01*
X032309Y027991D01*
X031329D02*
X031369Y028031D01*
X031409D01*
X031369Y028071D01*
X031409Y028111D01*
X031369D01*
X031329Y028151D01*
X031289Y028111D01*
X031249D01*
X031289Y028071D01*
X031249Y028031D01*
X031289D01*
X031329Y027991D01*
X030319D02*
X030359Y028031D01*
X030399D01*
X030359Y028071D01*
X030399Y028111D01*
X030359D01*
X030319Y028151D01*
X030279Y028111D01*
X030239D01*
X030279Y028071D01*
X030239Y028031D01*
X030279D01*
X030319Y027991D01*
X007958Y017768D02*
X007998Y017808D01*
X008038D01*
X007998Y017848D01*
X008038Y017888D01*
X007998D01*
X007958Y017928D01*
X007918Y017888D01*
X007879D01*
X007918Y017848D01*
X007879Y017808D01*
X007918D01*
X007958Y017768D01*
Y018778D02*
X007998Y018818D01*
X008038D01*
X007998Y018858D01*
X008038Y018898D01*
X007998D01*
X007958Y018938D01*
X007918Y018898D01*
X007879D01*
X007918Y018858D01*
X007879Y018818D01*
X007918D01*
X007958Y018778D01*
X037581Y030009D02*
X037621Y030049D01*
X037661D01*
X037621Y030089D01*
X037661Y030129D01*
X037621D01*
X037581Y030169D01*
X037541Y030129D01*
X037501D01*
X037541Y030089D01*
X037501Y030049D01*
X037541D01*
X037581Y030009D01*
X034793D02*
X034833Y030049D01*
X034873D01*
X034833Y030089D01*
X034873Y030129D01*
X034833D01*
X034793Y030169D01*
X034753Y030129D01*
X034713D01*
X034753Y030089D01*
X034713Y030049D01*
X034753D01*
X034793Y030009D01*
X036276Y019881D02*
X036316Y019921D01*
X036356D01*
X036316Y019961D01*
X036356Y020001D01*
X036316D01*
X036276Y020041D01*
X036236Y020001D01*
X036196D01*
X036236Y019961D01*
X036196Y019921D01*
X036236D01*
X036276Y019881D01*
X037244D02*
X037284Y019921D01*
X037324D01*
X037284Y019961D01*
X037324Y020001D01*
X037284D01*
X037244Y020041D01*
X037204Y020001D01*
X037164D01*
X037204Y019961D01*
X037164Y019921D01*
X037204D01*
X037244Y019881D01*
X036276Y018912D02*
X036316Y018952D01*
X036356D01*
X036316Y018992D01*
X036356Y019032D01*
X036316D01*
X036276Y019072D01*
X036236Y019032D01*
X036196D01*
X036236Y018992D01*
X036196Y018952D01*
X036236D01*
X036276Y018912D01*
X037244D02*
X037284Y018952D01*
X037324D01*
X037284Y018992D01*
X037324Y019032D01*
X037284D01*
X037244Y019072D01*
X037204Y019032D01*
X037164D01*
X037204Y018992D01*
X037164Y018952D01*
X037204D01*
X037244Y018912D01*
X036276Y017944D02*
X036316Y017984D01*
X036356D01*
X036316Y018024D01*
X036356Y018064D01*
X036316D01*
X036276Y018104D01*
X036236Y018064D01*
X036196D01*
X036236Y018024D01*
X036196Y017984D01*
X036236D01*
X036276Y017944D01*
X037244D02*
X037284Y017984D01*
X037324D01*
X037284Y018024D01*
X037324Y018064D01*
X037284D01*
X037244Y018104D01*
X037204Y018064D01*
X037164D01*
X037204Y018024D01*
X037164Y017984D01*
X037204D01*
X037244Y017944D01*
X036276Y016975D02*
X036316Y017015D01*
X036356D01*
X036316Y017055D01*
X036356Y017095D01*
X036316D01*
X036276Y017135D01*
X036236Y017095D01*
X036196D01*
X036236Y017055D01*
X036196Y017015D01*
X036236D01*
X036276Y016975D01*
X037244D02*
X037284Y017015D01*
X037324D01*
X037284Y017055D01*
X037324Y017095D01*
X037284D01*
X037244Y017135D01*
X037204Y017095D01*
X037164D01*
X037204Y017055D01*
X037164Y017015D01*
X037204D01*
X037244Y016975D01*
X023434Y036085D02*
X023474Y036165D01*
X023434Y036245D01*
X023514Y036205D01*
X023594Y036245D01*
X023554Y036165D01*
X023594Y036085D01*
X023514Y036125D01*
X023434Y036085D01*
X024934D02*
X024974Y036165D01*
X024934Y036245D01*
X025014Y036205D01*
X025094Y036245D01*
X025054Y036165D01*
X025094Y036085D01*
X025014Y036125D01*
X024934Y036085D01*
X026434D02*
X026474Y036165D01*
X026434Y036245D01*
X026514Y036205D01*
X026594Y036245D01*
X026554Y036165D01*
X026594Y036085D01*
X026514Y036125D01*
X026434Y036085D01*
X027934D02*
X027974Y036165D01*
X027934Y036245D01*
X028014Y036205D01*
X028094Y036245D01*
X028054Y036165D01*
X028094Y036085D01*
X028014Y036125D01*
X027934Y036085D01*
X016568D02*
X016608Y036165D01*
X016568Y036245D01*
X016648Y036205D01*
X016728Y036245D01*
X016688Y036165D01*
X016728Y036085D01*
X016648Y036125D01*
X016568Y036085D01*
X018068D02*
X018108Y036165D01*
X018068Y036245D01*
X018148Y036205D01*
X018228Y036245D01*
X018188Y036165D01*
X018228Y036085D01*
X018148Y036125D01*
X018068Y036085D01*
X019568D02*
X019608Y036165D01*
X019568Y036245D01*
X019648Y036205D01*
X019728Y036245D01*
X019688Y036165D01*
X019728Y036085D01*
X019648Y036125D01*
X019568Y036085D01*
X021068D02*
X021108Y036165D01*
X021068Y036245D01*
X021148Y036205D01*
X021228Y036245D01*
X021188Y036165D01*
X021228Y036085D01*
X021148Y036125D01*
X021068Y036085D01*
X028724Y028031D02*
Y027991D01*
X028804D01*
Y028031D01*
X028844D01*
Y028111D01*
X028804D01*
Y028151D01*
X028724D01*
Y028111D01*
X028684D01*
Y028031D01*
X028724D01*
X027724D02*
Y027991D01*
X027804D01*
Y028031D01*
X027844D01*
Y028111D01*
X027804D01*
Y028151D01*
X027724D01*
Y028111D01*
X027684D01*
Y028031D01*
X027724D01*
X025724D02*
Y027991D01*
X025804D01*
Y028031D01*
X025844D01*
Y028111D01*
X025804D01*
Y028151D01*
X025724D01*
Y028111D01*
X025684D01*
Y028031D01*
X025724D01*
X023724D02*
Y027991D01*
X023804D01*
Y028031D01*
X023844D01*
Y028111D01*
X023804D01*
Y028151D01*
X023724D01*
Y028111D01*
X023684D01*
Y028031D01*
X023724D01*
X019724D02*
Y027991D01*
X019804D01*
Y028031D01*
X019844D01*
Y028111D01*
X019804D01*
Y028151D01*
X019724D01*
Y028111D01*
X019684D01*
Y028031D01*
X019724D01*
X020724D02*
Y027991D01*
X020804D01*
Y028031D01*
X020844D01*
Y028111D01*
X020804D01*
Y028151D01*
X020724D01*
Y028111D01*
X020684D01*
Y028031D01*
X020724D01*
X021724D02*
Y027991D01*
X021804D01*
Y028031D01*
X021844D01*
Y028111D01*
X021804D01*
Y028151D01*
X021724D01*
Y028111D01*
X021684D01*
Y028031D01*
X021724D01*
X022724D02*
Y027991D01*
X022804D01*
Y028031D01*
X022844D01*
Y028111D01*
X022804D01*
Y028151D01*
X022724D01*
Y028111D01*
X022684D01*
Y028031D01*
X022724D01*
X024724D02*
Y027991D01*
X024804D01*
Y028031D01*
X024844D01*
Y028111D01*
X024804D01*
Y028151D01*
X024724D01*
Y028111D01*
X024684D01*
Y028031D01*
X024724D01*
X026724D02*
Y027991D01*
X026804D01*
Y028031D01*
X026844D01*
Y028111D01*
X026804D01*
Y028151D01*
X026724D01*
Y028111D01*
X026684D01*
Y028031D01*
X026724D01*
X042512Y014605D02*
X042552Y014645D01*
X042592D01*
X042552Y014685D01*
X042592Y014725D01*
X042552D01*
X042512Y014765D01*
X042472Y014725D01*
X042432D01*
X042472Y014685D01*
X042432Y014645D01*
X042472D01*
X042512Y014605D01*
X046512D02*
X046552Y014645D01*
X046592D01*
X046552Y014685D01*
X046592Y014725D01*
X046552D01*
X046512Y014765D01*
X046472Y014725D01*
X046432D01*
X046472Y014685D01*
X046432Y014645D01*
X046472D01*
X046512Y014605D01*
X045512D02*
X045552Y014645D01*
X045592D01*
X045552Y014685D01*
X045592Y014725D01*
X045552D01*
X045512Y014765D01*
X045472Y014725D01*
X045432D01*
X045472Y014685D01*
X045432Y014645D01*
X045472D01*
X045512Y014605D01*
X044512D02*
X044552Y014645D01*
X044592D01*
X044552Y014685D01*
X044592Y014725D01*
X044552D01*
X044512Y014765D01*
X044472Y014725D01*
X044432D01*
X044472Y014685D01*
X044432Y014645D01*
X044472D01*
X044512Y014605D01*
X043512D02*
X043552Y014645D01*
X043592D01*
X043552Y014685D01*
X043592Y014725D01*
X043552D01*
X043512Y014765D01*
X043472Y014725D01*
X043432D01*
X043472Y014685D01*
X043432Y014645D01*
X043472D01*
X043512Y014605D01*
X041512D02*
X041552Y014645D01*
X041592D01*
X041552Y014685D01*
X041592Y014725D01*
X041552D01*
X041512Y014765D01*
X041472Y014725D01*
X041432D01*
X041472Y014685D01*
X041432Y014645D01*
X041472D01*
X041512Y014605D01*
X037392Y023463D02*
X037432Y023503D01*
X037472D01*
X037432Y023543D01*
X037472Y023583D01*
X037432D01*
X037392Y023623D01*
X037352Y023583D01*
X037312D01*
X037352Y023543D01*
X037312Y023503D01*
X037352D01*
X037392Y023463D01*
Y022453D02*
X037432Y022493D01*
X037472D01*
X037432Y022533D01*
X037472Y022573D01*
X037432D01*
X037392Y022613D01*
X037352Y022573D01*
X037312D01*
X037352Y022533D01*
X037312Y022493D01*
X037352D01*
X037392Y022453D01*
X04411Y024152D02*
X04415Y024192D01*
X04419D01*
X04415Y024232D01*
X04419Y024272D01*
X04415D01*
X04411Y024312D01*
X04407Y024272D01*
X04403D01*
X04407Y024232D01*
X04403Y024192D01*
X04407D01*
X04411Y024152D01*
X04311D02*
X04315Y024192D01*
X04319D01*
X04315Y024232D01*
X04319Y024272D01*
X04315D01*
X04311Y024312D01*
X04307Y024272D01*
X04303D01*
X04307Y024232D01*
X04303Y024192D01*
X04307D01*
X04311Y024152D01*
X04211D02*
X04215Y024192D01*
X04219D01*
X04215Y024232D01*
X04219Y024272D01*
X04215D01*
X04211Y024312D01*
X04207Y024272D01*
X04203D01*
X04207Y024232D01*
X04203Y024192D01*
X04207D01*
X04211Y024152D01*
X04111D02*
X04115Y024192D01*
X04119D01*
X04115Y024232D01*
X04119Y024272D01*
X04115D01*
X04111Y024312D01*
X04107Y024272D01*
X04103D01*
X04107Y024232D01*
X04103Y024192D01*
X04107D01*
X04111Y024152D01*
X04011D02*
X04015Y024192D01*
X04019D01*
X04015Y024232D01*
X04019Y024272D01*
X04015D01*
X04011Y024312D01*
X04007Y024272D01*
X04003D01*
X04007Y024232D01*
X04003Y024192D01*
X04007D01*
X04011Y024152D01*
X03911D02*
X03915Y024192D01*
X03919D01*
X03915Y024232D01*
X03919Y024272D01*
X03915D01*
X03911Y024312D01*
X03907Y024272D01*
X03903D01*
X03907Y024232D01*
X03903Y024192D01*
X03907D01*
X03911Y024152D01*
X037077Y02553D02*
X037117Y02557D01*
X037157D01*
X037117Y02561D01*
X037157Y02565D01*
X037117D01*
X037077Y02569D01*
X037037Y02565D01*
X036997D01*
X037037Y02561D01*
X036997Y02557D01*
X037037D01*
X037077Y02553D01*
Y02452D02*
X037117Y02456D01*
X037157D01*
X037117Y0246D01*
X037157Y02464D01*
X037117D01*
X037077Y02468D01*
X037037Y02464D01*
X036997D01*
X037037Y0246D01*
X036997Y02456D01*
X037037D01*
X037077Y02452D01*
X003178Y012753D02*
X003218Y012833D01*
X003178Y012913D01*
X003258Y012873D01*
X003338Y012913D01*
X003298Y012833D01*
X003338Y012753D01*
X003258Y012793D01*
X003178Y012753D01*
Y014253D02*
X003218Y014333D01*
X003178Y014413D01*
X003258Y014373D01*
X003338Y014413D01*
X003298Y014333D01*
X003338Y014253D01*
X003258Y014293D01*
X003178Y014253D01*
X003175Y016335D02*
X003215Y016415D01*
X003175Y016495D01*
X003255Y016455D01*
X003335Y016495D01*
X003295Y016415D01*
X003335Y016335D01*
X003255Y016375D01*
X003175Y016335D01*
Y017835D02*
X003215Y017915D01*
X003175Y017995D01*
X003255Y017955D01*
X003335Y017995D01*
X003295Y017915D01*
X003335Y017835D01*
X003255Y017875D01*
X003175Y017835D01*
X008268Y01143D02*
X008308Y01147D01*
X008348D01*
X008308Y01151D01*
X008348Y01155D01*
X008308D01*
X008268Y01159D01*
X008228Y01155D01*
X008188D01*
X008228Y01151D01*
X008188Y01147D01*
X008228D01*
X008268Y01143D01*
Y01244D02*
X008308Y01248D01*
X008348D01*
X008308Y01252D01*
X008348Y01256D01*
X008308D01*
X008268Y0126D01*
X008228Y01256D01*
X008188D01*
X008228Y01252D01*
X008188Y01248D01*
X008228D01*
X008268Y01244D01*
X009685Y011469D02*
X009725Y011509D01*
X009765D01*
X009725Y011549D01*
X009765Y011589D01*
X009725D01*
X009685Y011629D01*
X009645Y011589D01*
X009605D01*
X009645Y011549D01*
X009605Y011509D01*
X009645D01*
X009685Y011469D01*
Y012479D02*
X009725Y012519D01*
X009765D01*
X009725Y012559D01*
X009765Y012599D01*
X009725D01*
X009685Y012639D01*
X009645Y012599D01*
X009605D01*
X009645Y012559D01*
X009605Y012519D01*
X009645D01*
X009685Y012479D01*
X009606Y013644D02*
X009646Y013684D01*
X009686D01*
X009646Y013724D01*
X009686Y013764D01*
X009646D01*
X009606Y013804D01*
X009566Y013764D01*
X009526D01*
X009566Y013724D01*
X009526Y013684D01*
X009566D01*
X009606Y013644D01*
Y014654D02*
X009646Y014694D01*
X009686D01*
X009646Y014734D01*
X009686Y014774D01*
X009646D01*
X009606Y014814D01*
X009566Y014774D01*
X009526D01*
X009566Y014734D01*
X009526Y014694D01*
X009566D01*
X009606Y014654D01*
Y015634D02*
X009646Y015674D01*
X009686D01*
X009646Y015714D01*
X009686Y015754D01*
X009646D01*
X009606Y015794D01*
X009566Y015754D01*
X009526D01*
X009566Y015714D01*
X009526Y015674D01*
X009566D01*
X009606Y015634D01*
X011038Y01618D02*
X011078D01*
X011118Y01622D01*
X011158Y01618D01*
X011198D01*
Y01622D01*
X011158Y01626D01*
X011198Y0163D01*
Y01634D01*
X011158D01*
X011118Y0163D01*
X011078Y01634D01*
X011038D01*
Y0163D01*
X011078Y01626D01*
X011038Y01622D01*
Y01618D01*
Y01118D02*
X011078D01*
X011118Y01122D01*
X011158Y01118D01*
X011198D01*
Y01122D01*
X011158Y01126D01*
X011198Y0113D01*
Y01134D01*
X011158D01*
X011118Y0113D01*
X011078Y01134D01*
X011038D01*
Y0113D01*
X011078Y01126D01*
X011038Y01122D01*
Y01118D01*
X012038D02*
X012078D01*
X012118Y01122D01*
X012158Y01118D01*
X012198D01*
Y01122D01*
X012158Y01126D01*
X012198Y0113D01*
Y01134D01*
X012158D01*
X012118Y0113D01*
X012078Y01134D01*
X012038D01*
Y0113D01*
X012078Y01126D01*
X012038Y01122D01*
Y01118D01*
X013038D02*
X013078D01*
X013118Y01122D01*
X013158Y01118D01*
X013198D01*
Y01122D01*
X013158Y01126D01*
X013198Y0113D01*
Y01134D01*
X013158D01*
X013118Y0113D01*
X013078Y01134D01*
X013038D01*
Y0113D01*
X013078Y01126D01*
X013038Y01122D01*
Y01118D01*
X014038D02*
X014078D01*
X014118Y01122D01*
X014158Y01118D01*
X014198D01*
Y01122D01*
X014158Y01126D01*
X014198Y0113D01*
Y01134D01*
X014158D01*
X014118Y0113D01*
X014078Y01134D01*
X014038D01*
Y0113D01*
X014078Y01126D01*
X014038Y01122D01*
Y01118D01*
X015038D02*
X015078D01*
X015118Y01122D01*
X015158Y01118D01*
X015198D01*
Y01122D01*
X015158Y01126D01*
X015198Y0113D01*
Y01134D01*
X015158D01*
X015118Y0113D01*
X015078Y01134D01*
X015038D01*
Y0113D01*
X015078Y01126D01*
X015038Y01122D01*
Y01118D01*
X016038D02*
X016078D01*
X016118Y01122D01*
X016158Y01118D01*
X016198D01*
Y01122D01*
X016158Y01126D01*
X016198Y0113D01*
Y01134D01*
X016158D01*
X016118Y0113D01*
X016078Y01134D01*
X016038D01*
Y0113D01*
X016078Y01126D01*
X016038Y01122D01*
Y01118D01*
X017038D02*
X017078D01*
X017118Y01122D01*
X017158Y01118D01*
X017198D01*
Y01122D01*
X017158Y01126D01*
X017198Y0113D01*
Y01134D01*
X017158D01*
X017118Y0113D01*
X017078Y01134D01*
X017038D01*
Y0113D01*
X017078Y01126D01*
X017038Y01122D01*
Y01118D01*
X018038D02*
X018078D01*
X018118Y01122D01*
X018158Y01118D01*
X018198D01*
Y01122D01*
X018158Y01126D01*
X018198Y0113D01*
Y01134D01*
X018158D01*
X018118Y0113D01*
X018078Y01134D01*
X018038D01*
Y0113D01*
X018078Y01126D01*
X018038Y01122D01*
Y01118D01*
Y01618D02*
X018078D01*
X018118Y01622D01*
X018158Y01618D01*
X018198D01*
Y01622D01*
X018158Y01626D01*
X018198Y0163D01*
Y01634D01*
X018158D01*
X018118Y0163D01*
X018078Y01634D01*
X018038D01*
Y0163D01*
X018078Y01626D01*
X018038Y01622D01*
Y01618D01*
X017038D02*
X017078D01*
X017118Y01622D01*
X017158Y01618D01*
X017198D01*
Y01622D01*
X017158Y01626D01*
X017198Y0163D01*
Y01634D01*
X017158D01*
X017118Y0163D01*
X017078Y01634D01*
X017038D01*
Y0163D01*
X017078Y01626D01*
X017038Y01622D01*
Y01618D01*
X016038D02*
X016078D01*
X016118Y01622D01*
X016158Y01618D01*
X016198D01*
Y01622D01*
X016158Y01626D01*
X016198Y0163D01*
Y01634D01*
X016158D01*
X016118Y0163D01*
X016078Y01634D01*
X016038D01*
Y0163D01*
X016078Y01626D01*
X016038Y01622D01*
Y01618D01*
X015038D02*
X015078D01*
X015118Y01622D01*
X015158Y01618D01*
X015198D01*
Y01622D01*
X015158Y01626D01*
X015198Y0163D01*
Y01634D01*
X015158D01*
X015118Y0163D01*
X015078Y01634D01*
X015038D01*
Y0163D01*
X015078Y01626D01*
X015038Y01622D01*
Y01618D01*
X014038D02*
X014078D01*
X014118Y01622D01*
X014158Y01618D01*
X014198D01*
Y01622D01*
X014158Y01626D01*
X014198Y0163D01*
Y01634D01*
X014158D01*
X014118Y0163D01*
X014078Y01634D01*
X014038D01*
Y0163D01*
X014078Y01626D01*
X014038Y01622D01*
Y01618D01*
X013038D02*
X013078D01*
X013118Y01622D01*
X013158Y01618D01*
X013198D01*
Y01622D01*
X013158Y01626D01*
X013198Y0163D01*
Y01634D01*
X013158D01*
X013118Y0163D01*
X013078Y01634D01*
X013038D01*
Y0163D01*
X013078Y01626D01*
X013038Y01622D01*
Y01618D01*
X012038D02*
X012078D01*
X012118Y01622D01*
X012158Y01618D01*
X012198D01*
Y01622D01*
X012158Y01626D01*
X012198Y0163D01*
Y01634D01*
X012158D01*
X012118Y0163D01*
X012078Y01634D01*
X012038D01*
Y0163D01*
X012078Y01626D01*
X012038Y01622D01*
Y01618D01*
X02154Y00365D02*
X02158Y00373D01*
X02154Y00381D01*
X02162Y00377D01*
X0217Y00381D01*
X02166Y00373D01*
X0217Y00365D01*
X02162Y00369D01*
X02154Y00365D01*
X02004D02*
X02008Y00373D01*
X02004Y00381D01*
X02012Y00377D01*
X0202Y00381D01*
X02016Y00373D01*
X0202Y00365D01*
X02012Y00369D01*
X02004Y00365D01*
X01854D02*
X01858Y00373D01*
X01854Y00381D01*
X01862Y00377D01*
X0187Y00381D01*
X01866Y00373D01*
X0187Y00365D01*
X01862Y00369D01*
X01854Y00365D01*
X01704D02*
X01708Y00373D01*
X01704Y00381D01*
X01712Y00377D01*
X0172Y00381D01*
X01716Y00373D01*
X0172Y00365D01*
X01712Y00369D01*
X01704Y00365D01*
X014798D02*
X014838Y00373D01*
X014798Y00381D01*
X014878Y00377D01*
X014958Y00381D01*
X014918Y00373D01*
X014958Y00365D01*
X014878Y00369D01*
X014798Y00365D01*
X013298D02*
X013338Y00373D01*
X013298Y00381D01*
X013378Y00377D01*
X013458Y00381D01*
X013418Y00373D01*
X013458Y00365D01*
X013378Y00369D01*
X013298Y00365D01*
X011798D02*
X011838Y00373D01*
X011798Y00381D01*
X011878Y00377D01*
X011958Y00381D01*
X011918Y00373D01*
X011958Y00365D01*
X011878Y00369D01*
X011798Y00365D01*
X010298D02*
X010338Y00373D01*
X010298Y00381D01*
X010378Y00377D01*
X010458Y00381D01*
X010418Y00373D01*
X010458Y00365D01*
X010378Y00369D01*
X010298Y00365D01*
X01581Y010083D02*
X01589Y010163D01*
X01597Y010083D01*
X01589Y010003D01*
X01581Y010083D01*
X01681D02*
X01689Y010163D01*
X01697Y010083D01*
X01689Y010003D01*
X01681Y010083D01*
X01781D02*
X01789Y010163D01*
X01797Y010083D01*
X01789Y010003D01*
X01781Y010083D01*
Y007083D02*
X01789Y007163D01*
X01797Y007083D01*
X01789Y007003D01*
X01781Y007083D01*
X01681D02*
X01689Y007163D01*
X01697Y007083D01*
X01689Y007003D01*
X01681Y007083D01*
X01581D02*
X01589Y007163D01*
X01597Y007083D01*
X01589Y007003D01*
X01581Y007083D01*
X012992Y009981D02*
X013032Y010021D01*
X013072D01*
X013032Y010061D01*
X013072Y010101D01*
X013032D01*
X012992Y010141D01*
X012952Y010101D01*
X012912D01*
X012952Y010061D01*
X012912Y010021D01*
X012952D01*
X012992Y009981D01*
Y008971D02*
X013032Y009011D01*
X013072D01*
X013032Y009051D01*
X013072Y009091D01*
X013032D01*
X012992Y009131D01*
X012952Y009091D01*
X012912D01*
X012952Y009051D01*
X012912Y009011D01*
X012952D01*
X012992Y008971D01*
Y007991D02*
X013032Y008031D01*
X013072D01*
X013032Y008071D01*
X013072Y008111D01*
X013032D01*
X012992Y008151D01*
X012952Y008111D01*
X012912D01*
X012952Y008071D01*
X012912Y008031D01*
X012952D01*
X012992Y007991D01*
X014331Y009981D02*
X014371Y010021D01*
X014411D01*
X014371Y010061D01*
X014411Y010101D01*
X014371D01*
X014331Y010141D01*
X014291Y010101D01*
X014251D01*
X014291Y010061D01*
X014251Y010021D01*
X014291D01*
X014331Y009981D01*
Y008971D02*
X014371Y009011D01*
X014411D01*
X014371Y009051D01*
X014411Y009091D01*
X014371D01*
X014331Y009131D01*
X014291Y009091D01*
X014251D01*
X014291Y009051D01*
X014251Y009011D01*
X014291D01*
X014331Y008971D01*
Y007991D02*
X014371Y008031D01*
X014411D01*
X014371Y008071D01*
X014411Y008111D01*
X014371D01*
X014331Y008151D01*
X014291Y008111D01*
X014251D01*
X014291Y008071D01*
X014251Y008031D01*
X014291D01*
X014331Y007991D01*
X010354Y010024D02*
X010394Y010064D01*
X010434D01*
X010394Y010104D01*
X010434Y010144D01*
X010394D01*
X010354Y010184D01*
X010314Y010144D01*
X010274D01*
X010314Y010104D01*
X010274Y010064D01*
X010314D01*
X010354Y010024D01*
Y009014D02*
X010394Y009054D01*
X010434D01*
X010394Y009094D01*
X010434Y009134D01*
X010394D01*
X010354Y009174D01*
X010314Y009134D01*
X010274D01*
X010314Y009094D01*
X010274Y009054D01*
X010314D01*
X010354Y009014D01*
Y008034D02*
X010394Y008074D01*
X010434D01*
X010394Y008114D01*
X010434Y008154D01*
X010394D01*
X010354Y008194D01*
X010314Y008154D01*
X010274D01*
X010314Y008114D01*
X010274Y008074D01*
X010314D01*
X010354Y008034D01*
X011693Y009975D02*
X011733Y010015D01*
X011773D01*
X011733Y010055D01*
X011773Y010095D01*
X011733D01*
X011693Y010135D01*
X011653Y010095D01*
X011613D01*
X011653Y010055D01*
X011613Y010015D01*
X011653D01*
X011693Y009975D01*
Y008965D02*
X011733Y009005D01*
X011773D01*
X011733Y009045D01*
X011773Y009085D01*
X011733D01*
X011693Y009125D01*
X011653Y009085D01*
X011613D01*
X011653Y009045D01*
X011613Y009005D01*
X011653D01*
X011693Y008965D01*
Y007985D02*
X011733Y008025D01*
X011773D01*
X011733Y008065D01*
X011773Y008105D01*
X011733D01*
X011693Y008145D01*
X011653Y008105D01*
X011613D01*
X011653Y008065D01*
X011613Y008025D01*
X011653D01*
X011693Y007985D01*
X026148Y011219D02*
X026188D01*
X026228Y011259D01*
X026268Y011219D01*
X026308D01*
Y011259D01*
X026268Y011299D01*
X026308Y011339D01*
Y011379D01*
X026268D01*
X026228Y011339D01*
X026188Y011379D01*
X026148D01*
Y011339D01*
X026188Y011299D01*
X026148Y011259D01*
Y011219D01*
Y016219D02*
X026188D01*
X026228Y016259D01*
X026268Y016219D01*
X026308D01*
Y016259D01*
X026268Y016299D01*
X026308Y016339D01*
Y016379D01*
X026268D01*
X026228Y016339D01*
X026188Y016379D01*
X026148D01*
Y016339D01*
X026188Y016299D01*
X026148Y016259D01*
Y016219D01*
X025148D02*
X025188D01*
X025228Y016259D01*
X025268Y016219D01*
X025308D01*
Y016259D01*
X025268Y016299D01*
X025308Y016339D01*
Y016379D01*
X025268D01*
X025228Y016339D01*
X025188Y016379D01*
X025148D01*
Y016339D01*
X025188Y016299D01*
X025148Y016259D01*
Y016219D01*
X024148D02*
X024188D01*
X024228Y016259D01*
X024268Y016219D01*
X024308D01*
Y016259D01*
X024268Y016299D01*
X024308Y016339D01*
Y016379D01*
X024268D01*
X024228Y016339D01*
X024188Y016379D01*
X024148D01*
Y016339D01*
X024188Y016299D01*
X024148Y016259D01*
Y016219D01*
X023148D02*
X023188D01*
X023228Y016259D01*
X023268Y016219D01*
X023308D01*
Y016259D01*
X023268Y016299D01*
X023308Y016339D01*
Y016379D01*
X023268D01*
X023228Y016339D01*
X023188Y016379D01*
X023148D01*
Y016339D01*
X023188Y016299D01*
X023148Y016259D01*
Y016219D01*
X022148D02*
X022188D01*
X022228Y016259D01*
X022268Y016219D01*
X022308D01*
Y016259D01*
X022268Y016299D01*
X022308Y016339D01*
Y016379D01*
X022268D01*
X022228Y016339D01*
X022188Y016379D01*
X022148D01*
Y016339D01*
X022188Y016299D01*
X022148Y016259D01*
Y016219D01*
X021148D02*
X021188D01*
X021228Y016259D01*
X021268Y016219D01*
X021308D01*
Y016259D01*
X021268Y016299D01*
X021308Y016339D01*
Y016379D01*
X021268D01*
X021228Y016339D01*
X021188Y016379D01*
X021148D01*
Y016339D01*
X021188Y016299D01*
X021148Y016259D01*
Y016219D01*
X020148D02*
X020188D01*
X020228Y016259D01*
X020268Y016219D01*
X020308D01*
Y016259D01*
X020268Y016299D01*
X020308Y016339D01*
Y016379D01*
X020268D01*
X020228Y016339D01*
X020188Y016379D01*
X020148D01*
Y016339D01*
X020188Y016299D01*
X020148Y016259D01*
Y016219D01*
X019148D02*
X019188D01*
X019228Y016259D01*
X019268Y016219D01*
X019308D01*
Y016259D01*
X019268Y016299D01*
X019308Y016339D01*
Y016379D01*
X019268D01*
X019228Y016339D01*
X019188Y016379D01*
X019148D01*
Y016339D01*
X019188Y016299D01*
X019148Y016259D01*
Y016219D01*
Y011219D02*
X019188D01*
X019228Y011259D01*
X019268Y011219D01*
X019308D01*
Y011259D01*
X019268Y011299D01*
X019308Y011339D01*
Y011379D01*
X019268D01*
X019228Y011339D01*
X019188Y011379D01*
X019148D01*
Y011339D01*
X019188Y011299D01*
X019148Y011259D01*
Y011219D01*
X020148D02*
X020188D01*
X020228Y011259D01*
X020268Y011219D01*
X020308D01*
Y011259D01*
X020268Y011299D01*
X020308Y011339D01*
Y011379D01*
X020268D01*
X020228Y011339D01*
X020188Y011379D01*
X020148D01*
Y011339D01*
X020188Y011299D01*
X020148Y011259D01*
Y011219D01*
X021148D02*
X021188D01*
X021228Y011259D01*
X021268Y011219D01*
X021308D01*
Y011259D01*
X021268Y011299D01*
X021308Y011339D01*
Y011379D01*
X021268D01*
X021228Y011339D01*
X021188Y011379D01*
X021148D01*
Y011339D01*
X021188Y011299D01*
X021148Y011259D01*
Y011219D01*
X022148D02*
X022188D01*
X022228Y011259D01*
X022268Y011219D01*
X022308D01*
Y011259D01*
X022268Y011299D01*
X022308Y011339D01*
Y011379D01*
X022268D01*
X022228Y011339D01*
X022188Y011379D01*
X022148D01*
Y011339D01*
X022188Y011299D01*
X022148Y011259D01*
Y011219D01*
X023148D02*
X023188D01*
X023228Y011259D01*
X023268Y011219D01*
X023308D01*
Y011259D01*
X023268Y011299D01*
X023308Y011339D01*
Y011379D01*
X023268D01*
X023228Y011339D01*
X023188Y011379D01*
X023148D01*
Y011339D01*
X023188Y011299D01*
X023148Y011259D01*
Y011219D01*
X024148D02*
X024188D01*
X024228Y011259D01*
X024268Y011219D01*
X024308D01*
Y011259D01*
X024268Y011299D01*
X024308Y011339D01*
Y011379D01*
X024268D01*
X024228Y011339D01*
X024188Y011379D01*
X024148D01*
Y011339D01*
X024188Y011299D01*
X024148Y011259D01*
Y011219D01*
X025148D02*
X025188D01*
X025228Y011259D01*
X025268Y011219D01*
X025308D01*
Y011259D01*
X025268Y011299D01*
X025308Y011339D01*
Y011379D01*
X025268D01*
X025228Y011339D01*
X025188Y011379D01*
X025148D01*
Y011339D01*
X025188Y011299D01*
X025148Y011259D01*
Y011219D01*
X01955Y010083D02*
X01963Y010163D01*
X01971Y010083D01*
X01963Y010003D01*
X01955Y010083D01*
X02055D02*
X02063Y010163D01*
X02071Y010083D01*
X02063Y010003D01*
X02055Y010083D01*
X02155D02*
X02163Y010163D01*
X02171Y010083D01*
X02163Y010003D01*
X02155Y010083D01*
Y007083D02*
X02163Y007163D01*
X02171Y007083D01*
X02163Y007003D01*
X02155Y007083D01*
X02055D02*
X02063Y007163D01*
X02071Y007083D01*
X02063Y007003D01*
X02055Y007083D01*
X01955D02*
X01963Y007163D01*
X01971Y007083D01*
X01963Y007003D01*
X01955Y007083D01*
X024685Y010014D02*
X024725Y010054D01*
X024765D01*
X024725Y010094D01*
X024765Y010134D01*
X024725D01*
X024685Y010174D01*
X024645Y010134D01*
X024605D01*
X024645Y010094D01*
X024605Y010054D01*
X024645D01*
X024685Y010014D01*
Y009004D02*
X024725Y009044D01*
X024765D01*
X024725Y009084D01*
X024765Y009124D01*
X024725D01*
X024685Y009164D01*
X024645Y009124D01*
X024605D01*
X024645Y009084D01*
X024605Y009044D01*
X024645D01*
X024685Y009004D01*
Y008024D02*
X024725Y008064D01*
X024765D01*
X024725Y008104D01*
X024765Y008144D01*
X024725D01*
X024685Y008184D01*
X024645Y008144D01*
X024605D01*
X024645Y008104D01*
X024605Y008064D01*
X024645D01*
X024685Y008024D01*
X023307Y010024D02*
X023347Y010064D01*
X023387D01*
X023347Y010104D01*
X023387Y010144D01*
X023347D01*
X023307Y010184D01*
X023267Y010144D01*
X023227D01*
X023267Y010104D01*
X023227Y010064D01*
X023267D01*
X023307Y010024D01*
Y009014D02*
X023347Y009054D01*
X023387D01*
X023347Y009094D01*
X023387Y009134D01*
X023347D01*
X023307Y009174D01*
X023267Y009134D01*
X023227D01*
X023267Y009094D01*
X023227Y009054D01*
X023267D01*
X023307Y009014D01*
Y008034D02*
X023347Y008074D01*
X023387D01*
X023347Y008114D01*
X023387Y008154D01*
X023347D01*
X023307Y008194D01*
X023267Y008154D01*
X023227D01*
X023267Y008114D01*
X023227Y008074D01*
X023267D01*
X023307Y008034D01*
X027283Y010038D02*
X027323Y010078D01*
X027363D01*
X027323Y010118D01*
X027363Y010158D01*
X027323D01*
X027283Y010198D01*
X027243Y010158D01*
X027203D01*
X027243Y010118D01*
X027203Y010078D01*
X027243D01*
X027283Y010038D01*
Y009028D02*
X027323Y009068D01*
X027363D01*
X027323Y009108D01*
X027363Y009148D01*
X027323D01*
X027283Y009188D01*
X027243Y009148D01*
X027203D01*
X027243Y009108D01*
X027203Y009068D01*
X027243D01*
X027283Y009028D01*
Y008048D02*
X027323Y008088D01*
X027363D01*
X027323Y008128D01*
X027363Y008168D01*
X027323D01*
X027283Y008208D01*
X027243Y008168D01*
X027203D01*
X027243Y008128D01*
X027203Y008088D01*
X027243D01*
X027283Y008048D01*
X025984Y010024D02*
X026024Y010064D01*
X026064D01*
X026024Y010104D01*
X026064Y010144D01*
X026024D01*
X025984Y010184D01*
X025944Y010144D01*
X025904D01*
X025944Y010104D01*
X025904Y010064D01*
X025944D01*
X025984Y010024D01*
Y009014D02*
X026024Y009054D01*
X026064D01*
X026024Y009094D01*
X026064Y009134D01*
X026024D01*
X025984Y009174D01*
X025944Y009134D01*
X025904D01*
X025944Y009094D01*
X025904Y009054D01*
X025944D01*
X025984Y009014D01*
Y008034D02*
X026024Y008074D01*
X026064D01*
X026024Y008114D01*
X026064Y008154D01*
X026024D01*
X025984Y008194D01*
X025944Y008154D01*
X025904D01*
X025944Y008114D01*
X025904Y008074D01*
X025944D01*
X025984Y008034D01*
X032309Y029251D02*
X032349Y029291D01*
X032389D01*
X032349Y029331D01*
X032389Y029371D01*
X032349D01*
X032309Y029411D01*
X032269Y029371D01*
X032229D01*
X032269Y029331D01*
X032229Y029291D01*
X032269D01*
X032309Y029251D01*
X031299D02*
X031339Y029291D01*
X031379D01*
X031339Y029331D01*
X031379Y029371D01*
X031339D01*
X031299Y029411D01*
X031259Y029371D01*
X031219D01*
X031259Y029331D01*
X031219Y029291D01*
X031259D01*
X031299Y029251D01*
X030319D02*
X030359Y029291D01*
X030399D01*
X030359Y029331D01*
X030399Y029371D01*
X030359D01*
X030319Y029411D01*
X030279Y029371D01*
X030239D01*
X030279Y029331D01*
X030239Y029291D01*
X030279D01*
X030319Y029251D01*
X001601Y022096D02*
Y022256D01*
X001761D01*
Y022096D01*
X001601D01*
X001641Y022136D02*
Y022216D01*
X001721D01*
Y022136D01*
X001641D01*
X001601Y024065D02*
Y024225D01*
X001761D01*
Y024065D01*
X001601D01*
X001641Y024105D02*
Y024185D01*
X001721D01*
Y024105D01*
X001641D01*
X001601Y020128D02*
Y020288D01*
X001761D01*
Y020128D01*
X001601D01*
X001641Y020168D02*
Y020248D01*
X001721D01*
Y020168D01*
X001641D01*
X027498Y021534D02*
X027538Y021574D01*
X027578D01*
X027538Y021614D01*
X027578Y021654D01*
X027538D01*
X027498Y021694D01*
X027458Y021654D01*
X027418D01*
X027458Y021614D01*
X027418Y021574D01*
X027458D01*
X027498Y021534D01*
X028508D02*
X028548Y021574D01*
X028588D01*
X028548Y021614D01*
X028588Y021654D01*
X028548D01*
X028508Y021694D01*
X028468Y021654D01*
X028428D01*
X028468Y021614D01*
X028428Y021574D01*
X028468D01*
X028508Y021534D01*
X029488D02*
X029528Y021574D01*
X029568D01*
X029528Y021614D01*
X029568Y021654D01*
X029528D01*
X029488Y021694D01*
X029448Y021654D01*
X029408D01*
X029448Y021614D01*
X029408Y021574D01*
X029448D01*
X029488Y021534D01*
X000683Y026455D02*
X000723Y026495D01*
X000763D01*
X000723Y026535D01*
X000763Y026575D01*
X000723D01*
X000683Y026615D01*
X000643Y026575D01*
X000603D01*
X000643Y026535D01*
X000603Y026495D01*
X000643D01*
X000683Y026455D01*
X001693D02*
X001733Y026495D01*
X001773D01*
X001733Y026535D01*
X001773Y026575D01*
X001733D01*
X001693Y026615D01*
X001653Y026575D01*
X001613D01*
X001653Y026535D01*
X001613Y026495D01*
X001653D01*
X001693Y026455D01*
X00553Y038326D02*
X00557Y038366D01*
X00561D01*
X00557Y038406D01*
X00561Y038446D01*
X00557D01*
X00553Y038486D01*
X00549Y038446D01*
X00545D01*
X00549Y038406D01*
X00545Y038366D01*
X00549D01*
X00553Y038326D01*
X00452D02*
X00456Y038366D01*
X0046D01*
X00456Y038406D01*
X0046Y038446D01*
X00456D01*
X00452Y038486D01*
X00448Y038446D01*
X00444D01*
X00448Y038406D01*
X00444Y038366D01*
X00448D01*
X00452Y038326D01*
X00354D02*
X00358Y038366D01*
X00362D01*
X00358Y038406D01*
X00362Y038446D01*
X00358D01*
X00354Y038486D01*
X0035Y038446D01*
X00346D01*
X0035Y038406D01*
X00346Y038366D01*
X0035D01*
X00354Y038326D01*
X00253D02*
X00257Y038366D01*
X00261D01*
X00257Y038406D01*
X00261Y038446D01*
X00257D01*
X00253Y038486D01*
X00249Y038446D01*
X00245D01*
X00249Y038406D01*
X00245Y038366D01*
X00249D01*
X00253Y038326D01*
X004756Y027794D02*
X004796Y027834D01*
X004836D01*
X004796Y027874D01*
X004836Y027914D01*
X004796D01*
X004756Y027954D01*
X004716Y027914D01*
X004676D01*
X004716Y027874D01*
X004676Y027834D01*
X004716D01*
X004756Y027794D01*
X000756D02*
X000796Y027834D01*
X000836D01*
X000796Y027874D01*
X000836Y027914D01*
X000796D01*
X000756Y027954D01*
X000716Y027914D01*
X000676D01*
X000716Y027874D01*
X000676Y027834D01*
X000716D01*
X000756Y027794D01*
X001756D02*
X001796Y027834D01*
X001836D01*
X001796Y027874D01*
X001836Y027914D01*
X001796D01*
X001756Y027954D01*
X001716Y027914D01*
X001676D01*
X001716Y027874D01*
X001676Y027834D01*
X001716D01*
X001756Y027794D01*
X002756D02*
X002796Y027834D01*
X002836D01*
X002796Y027874D01*
X002836Y027914D01*
X002796D01*
X002756Y027954D01*
X002716Y027914D01*
X002676D01*
X002716Y027874D01*
X002676Y027834D01*
X002716D01*
X002756Y027794D01*
X003756D02*
X003796Y027834D01*
X003836D01*
X003796Y027874D01*
X003836Y027914D01*
X003796D01*
X003756Y027954D01*
X003716Y027914D01*
X003676D01*
X003716Y027874D01*
X003676Y027834D01*
X003716D01*
X003756Y027794D01*
X005968Y027833D02*
X006008Y027873D01*
X006048D01*
X006008Y027913D01*
X006048Y027953D01*
X006008D01*
X005968Y027993D01*
X005929Y027953D01*
X005889D01*
X005929Y027913D01*
X005889Y027873D01*
X005929D01*
X005968Y027833D01*
X006978D02*
X007018Y027873D01*
X007059D01*
X007018Y027913D01*
X007059Y027953D01*
X007018D01*
X006978Y027993D01*
X006938Y027953D01*
X006898D01*
X006938Y027913D01*
X006898Y027873D01*
X006938D01*
X006978Y027833D01*
X007958D02*
X007998Y027873D01*
X008038D01*
X007998Y027913D01*
X008038Y027953D01*
X007998D01*
X007958Y027993D01*
X007918Y027953D01*
X007879D01*
X007918Y027913D01*
X007879Y027873D01*
X007918D01*
X007958Y027833D01*
X006834Y038286D02*
X006874Y038326D01*
X006914D01*
X006874Y038366D01*
X006914Y038406D01*
X006874D01*
X006834Y038446D01*
X006794Y038406D01*
X006754D01*
X006794Y038366D01*
X006754Y038326D01*
X006794D01*
X006834Y038286D01*
X007844D02*
X007884Y038326D01*
X007924D01*
X007884Y038366D01*
X007924Y038406D01*
X007884D01*
X007844Y038446D01*
X007804Y038406D01*
X007764D01*
X007804Y038366D01*
X007764Y038326D01*
X007804D01*
X007844Y038286D01*
X002774Y026455D02*
X002814Y026495D01*
X002854D01*
X002814Y026535D01*
X002854Y026575D01*
X002814D01*
X002774Y026615D01*
X002734Y026575D01*
X002694D01*
X002734Y026535D01*
X002694Y026495D01*
X002734D01*
X002774Y026455D01*
X003784D02*
X003824Y026495D01*
X003864D01*
X003824Y026535D01*
X003864Y026575D01*
X003824D01*
X003784Y026615D01*
X003744Y026575D01*
X003704D01*
X003744Y026535D01*
X003704Y026495D01*
X003744D01*
X003784Y026455D01*
X004764D02*
X004804Y026495D01*
X004844D01*
X004804Y026535D01*
X004844Y026575D01*
X004804D01*
X004764Y026615D01*
X004724Y026575D01*
X004684D01*
X004724Y026535D01*
X004684Y026495D01*
X004724D01*
X004764Y026455D01*
X005774D02*
X005814Y026495D01*
X005854D01*
X005814Y026535D01*
X005854Y026575D01*
X005814D01*
X005774Y026615D01*
X005734Y026575D01*
X005694D01*
X005734Y026535D01*
X005694Y026495D01*
X005734D01*
X005774Y026455D01*
X046154Y010983D02*
X046194Y011023D01*
X046234D01*
X046194Y011063D01*
X046234Y011103D01*
X046194D01*
X046154Y011143D01*
X046114Y011103D01*
X046074D01*
X046114Y011063D01*
X046074Y011023D01*
X046114D01*
X046154Y010983D01*
X045165D02*
X045205Y011023D01*
X045245D01*
X045205Y011063D01*
X045245Y011103D01*
X045205D01*
X045165Y011143D01*
X045125Y011103D01*
X045085D01*
X045125Y011063D01*
X045085Y011023D01*
X045125D01*
X045165Y010983D01*
X044177D02*
X044217Y011023D01*
X044257D01*
X044217Y011063D01*
X044257Y011103D01*
X044217D01*
X044177Y011143D01*
X044137Y011103D01*
X044097D01*
X044137Y011063D01*
X044097Y011023D01*
X044137D01*
X044177Y010983D01*
X043189D02*
X043229Y011023D01*
X043269D01*
X043229Y011063D01*
X043269Y011103D01*
X043229D01*
X043189Y011143D01*
X043149Y011103D01*
X043109D01*
X043149Y011063D01*
X043109Y011023D01*
X043149D01*
X043189Y010983D01*
X042201D02*
X042241Y011023D01*
X042281D01*
X042241Y011063D01*
X042281Y011103D01*
X042241D01*
X042201Y011143D01*
X042161Y011103D01*
X042121D01*
X042161Y011063D01*
X042121Y011023D01*
X042161D01*
X042201Y010983D01*
X041213D02*
X041253Y011023D01*
X041293D01*
X041253Y011063D01*
X041293Y011103D01*
X041253D01*
X041213Y011143D01*
X041173Y011103D01*
X041133D01*
X041173Y011063D01*
X041133Y011023D01*
X041173D01*
X041213Y010983D01*
X039724Y012873D02*
X039764Y012913D01*
X039804D01*
X039764Y012953D01*
X039804Y012993D01*
X039764D01*
X039724Y013033D01*
X039684Y012993D01*
X039644D01*
X039684Y012953D01*
X039644Y012913D01*
X039684D01*
X039724Y012873D01*
Y011863D02*
X039764Y011903D01*
X039804D01*
X039764Y011943D01*
X039804Y011983D01*
X039764D01*
X039724Y012023D01*
X039684Y011983D01*
X039644D01*
X039684Y011943D01*
X039644Y011903D01*
X039684D01*
X039724Y011863D01*
Y010883D02*
X039764Y010923D01*
X039804D01*
X039764Y010963D01*
X039804Y011003D01*
X039764D01*
X039724Y011043D01*
X039684Y011003D01*
X039644D01*
X039684Y010963D01*
X039644Y010923D01*
X039684D01*
X039724Y010883D01*
X041654Y002637D02*
X041694Y002677D01*
X041734D01*
X041694Y002717D01*
X041734Y002757D01*
X041694D01*
X041654Y002797D01*
X041614Y002757D01*
X041574D01*
X041614Y002717D01*
X041574Y002677D01*
X041614D01*
X041654Y002637D01*
X040644D02*
X040684Y002677D01*
X040724D01*
X040684Y002717D01*
X040724Y002757D01*
X040684D01*
X040644Y002797D01*
X040604Y002757D01*
X040564D01*
X040604Y002717D01*
X040564Y002677D01*
X040604D01*
X040644Y002637D01*
X039664D02*
X039704Y002677D01*
X039744D01*
X039704Y002717D01*
X039744Y002757D01*
X039704D01*
X039664Y002797D01*
X039624Y002757D01*
X039584D01*
X039624Y002717D01*
X039584Y002677D01*
X039624D01*
X039664Y002637D01*
D137*
X046485Y037323D02*
G03*
X046485Y037323I-00008J0D01*
G01*
X046215D02*
G03*
X046215Y037323I-00008J0D01*
G01*
X046485Y034567D02*
G03*
X046485Y034567I-00008J0D01*
G01*
X046215D02*
G03*
X046215Y034567I-00008J0D01*
G01*
X003505Y02188D02*
G03*
X003505Y02188I-00008J0D01*
G01*
X004017D02*
G03*
X004017Y02188I-00008J0D01*
G01*
X040503Y025683D02*
G03*
X040503Y025683I-00008J0D01*
G01*
X039293Y025965D02*
G03*
X039293Y025965I-00008J0D01*
G01*
X038889Y025837D02*
G03*
X038889Y025837I-00008J0D01*
G01*
X034914Y022619D02*
G03*
X034914Y022619I-00008J0D01*
G01*
X034923Y022352D02*
G03*
X034923Y022352I-00008J0D01*
G01*
X034658Y022176D02*
G03*
X034658Y022176I-00008J0D01*
G01*
X036302Y023269D02*
G03*
X036302Y023269I-00008J0D01*
G01*
X002403Y011339D02*
G03*
X002403Y011339I-00008J0D01*
G01*
X039633Y019872D02*
G03*
X039633Y019872I-00008J0D01*
G01*
X038539Y018785D02*
G03*
X038539Y018785I-00008J0D01*
G01*
X019066Y02811D02*
G03*
X019066Y02811I-00008J0D01*
G01*
X032324Y024813D02*
G03*
X032324Y024813I-00008J0D01*
G01*
X034883Y019409D02*
G03*
X034883Y019409I-00008J0D01*
G01*
X039863Y020374D02*
G03*
X039863Y020374I-00008J0D01*
G01*
X032663Y017057D02*
G03*
X032663Y017057I-00008J0D01*
G01*
X032373Y03064D02*
G03*
X032373Y03064I-00008J0D01*
G01*
X030926Y026707D02*
G03*
X030926Y026707I-00008J0D01*
G01*
X004804Y02189D02*
G03*
X004804Y02189I-00008J0D01*
G01*
X00756Y002362D02*
G03*
X00756Y002362I-00008J0D01*
G01*
X007354Y026801D02*
G03*
X007354Y026801I-00008J0D01*
G01*
X013338Y026654D02*
G03*
X013338Y026654I-00008J0D01*
G01*
X012461Y028521D02*
G03*
X012461Y028521I-00008J0D01*
G01*
X013198Y028071D02*
G03*
X013198Y028071I-00008J0D01*
G01*
X013326Y027611D02*
G03*
X013326Y027611I-00008J0D01*
G01*
X017797Y025984D02*
G03*
X017797Y025984I-00008J0D01*
G01*
X023702Y005906D02*
G03*
X023702Y005906I-00008J0D01*
G01*
X000907Y03627D02*
G03*
X000907Y03627I-00008J0D01*
G01*
X000651Y033907D02*
G03*
X000651Y033907I-00008J0D01*
G01*
X033501Y023238D02*
G03*
X033501Y023238I-00008J0D01*
G01*
X033889Y023967D02*
G03*
X033889Y023967I-00008J0D01*
G01*
X006064Y02498D02*
G03*
X006064Y02498I-00008J0D01*
G01*
X042238Y035218D02*
G03*
X042238Y035218I-00008J0D01*
G01*
X043018Y034714D02*
G03*
X043018Y034714I-00008J0D01*
G01*
X043261Y034834D02*
G03*
X043261Y034834I-00008J0D01*
G01*
X006039Y02581D02*
G03*
X006039Y02581I-00008J0D01*
G01*
X005631Y012638D02*
G03*
X005631Y012638I-00008J0D01*
G01*
X004676Y016693D02*
G03*
X004676Y016693I-00008J0D01*
G01*
X00509Y019745D02*
G03*
X00509Y019745I-00008J0D01*
G01*
X008377Y021929D02*
G03*
X008377Y021929I-00008J0D01*
G01*
X027383Y023514D02*
G03*
X027383Y023514I-00008J0D01*
G01*
X029204Y02373D02*
G03*
X029204Y02373I-00008J0D01*
G01*
X030356Y025994D02*
G03*
X030356Y025994I-00008J0D01*
G01*
X044332Y034291D02*
G03*
X044332Y034291I-00008J0D01*
G01*
X042974Y034104D02*
G03*
X042974Y034104I-00008J0D01*
G01*
X042137Y034557D02*
G03*
X042137Y034557I-00008J0D01*
G01*
X045289Y036458D02*
G03*
X045289Y036458I-00008J0D01*
G01*
X043761Y036358D02*
G03*
X043761Y036358I-00008J0D01*
G01*
X043771Y038386D02*
G03*
X043771Y038386I-00008J0D01*
G01*
X042167D02*
G03*
X042167Y038386I-00008J0D01*
G01*
X031734Y025404D02*
G03*
X031734Y025404I-00008J0D01*
G01*
X032108Y025561D02*
G03*
X032108Y025561I-00008J0D01*
G01*
X036509Y027856D02*
G03*
X036509Y027856I-00008J0D01*
G01*
X036005Y027736D02*
G03*
X036005Y027736I-00008J0D01*
G01*
X034263Y024154D02*
G03*
X034263Y024154I-00008J0D01*
G01*
X035188Y024183D02*
G03*
X035188Y024183I-00008J0D01*
G01*
X03193Y022333D02*
G03*
X03193Y022333I-00008J0D01*
G01*
X026802Y022362D02*
G03*
X026802Y022362I-00008J0D01*
G01*
X03322Y022795D02*
G03*
X03322Y022795I-00008J0D01*
G01*
X0432Y020709D02*
G03*
X0432Y020709I-00008J0D01*
G01*
X036458Y021181D02*
G03*
X036458Y021181I-00008J0D01*
G01*
X040956Y019646D02*
G03*
X040956Y019646I-00008J0D01*
G01*
X001596Y028563D02*
G03*
X001596Y028563I-00008J0D01*
G01*
X008791Y030778D02*
G03*
X008791Y030778I-00008J0D01*
G01*
X008775Y031476D02*
G03*
X008775Y031476I-00008J0D01*
G01*
X012117Y014439D02*
G03*
X012117Y014439I-00008J0D01*
G01*
X018033Y015187D02*
G03*
X018033Y015187I-00008J0D01*
G01*
X01825Y014193D02*
G03*
X01825Y014193I-00008J0D01*
G01*
X031704Y024331D02*
G03*
X031704Y024331I-00008J0D01*
G01*
X032295Y023996D02*
G03*
X032295Y023996I-00008J0D01*
G01*
X031637Y023583D02*
G03*
X031637Y023583I-00008J0D01*
G01*
X02827Y023712D02*
G03*
X02827Y023712I-00008J0D01*
G01*
X029736Y027049D02*
G03*
X029736Y027049I-00008J0D01*
G01*
X030364Y025049D02*
G03*
X030364Y025049I-00008J0D01*
G01*
X030976Y021614D02*
G03*
X030976Y021614I-00008J0D01*
G01*
X023407Y02188D02*
G03*
X023407Y02188I-00008J0D01*
G01*
X026576Y022028D02*
G03*
X026576Y022028I-00008J0D01*
G01*
X022836Y033041D02*
G03*
X022836Y033041I-00008J0D01*
G01*
X013417Y029075D02*
G03*
X013417Y029075I-00008J0D01*
G01*
X026458Y025034D02*
G03*
X026458Y025034I-00008J0D01*
G01*
X03055Y025783D02*
G03*
X03055Y025783I-00008J0D01*
G01*
X027442Y025817D02*
G03*
X027442Y025817I-00008J0D01*
G01*
X038604Y012293D02*
G03*
X038604Y012293I-00008J0D01*
G01*
X03881Y013199D02*
G03*
X03881Y013199I-00008J0D01*
G01*
X037078Y015915D02*
G03*
X037078Y015915I-00008J0D01*
G01*
X038623Y017913D02*
G03*
X038623Y017913I-00008J0D01*
G01*
X034991Y021024D02*
G03*
X034991Y021024I-00008J0D01*
G01*
X033576Y022127D02*
G03*
X033576Y022127I-00008J0D01*
G01*
X036118Y023691D02*
G03*
X036118Y023691I-00008J0D01*
G01*
X037789Y020818D02*
G03*
X037789Y020818I-00008J0D01*
G01*
X040867Y004764D02*
G03*
X040867Y004764I-00008J0D01*
G01*
X041143Y003868D02*
G03*
X041143Y003868I-00008J0D01*
G01*
X009913Y01875D02*
G03*
X009913Y01875I-00008J0D01*
G01*
X046665Y033366D02*
G03*
X046665Y033366I-00008J0D01*
G01*
X0401Y034065D02*
G03*
X0401Y034065I-00008J0D01*
G01*
X037511Y034262D02*
G03*
X037511Y034262I-00008J0D01*
G01*
X040218Y035522D02*
G03*
X040218Y035522I-00008J0D01*
G01*
X042029Y029656D02*
G03*
X042029Y029656I-00008J0D01*
G01*
X041556Y028661D02*
G03*
X041556Y028661I-00008J0D01*
G01*
X043919Y027894D02*
G03*
X043919Y027894I-00008J0D01*
G01*
X041999Y027874D02*
G03*
X041999Y027874I-00008J0D01*
G01*
X039155Y034695D02*
G03*
X039155Y034695I-00008J0D01*
G01*
X044895Y035947D02*
G03*
X044895Y035947I-00008J0D01*
G01*
X044115Y035699D02*
G03*
X044115Y035699I-00008J0D01*
G01*
X044863Y035689D02*
G03*
X044863Y035689I-00008J0D01*
G01*
X04397Y035927D02*
G03*
X04397Y035927I-00008J0D01*
G01*
X045228Y03253D02*
G03*
X045228Y03253I-00008J0D01*
G01*
X044106Y035413D02*
G03*
X044106Y035413I-00008J0D01*
G01*
X042836Y03252D02*
G03*
X042836Y03252I-00008J0D01*
G01*
X041281Y03251D02*
G03*
X041281Y03251I-00008J0D01*
G01*
X04386Y031368D02*
G03*
X04386Y031368I-00008J0D01*
G01*
X043692Y031752D02*
G03*
X043692Y031752I-00008J0D01*
G01*
X040928Y035257D02*
G03*
X040928Y035257I-00008J0D01*
G01*
X04272Y035415D02*
G03*
X04272Y035415I-00008J0D01*
G01*
X040848Y021929D02*
G03*
X040848Y021929I-00008J0D01*
G01*
X040503Y034872D02*
G03*
X040503Y034872I-00008J0D01*
G01*
X037984Y035807D02*
G03*
X037984Y035807I-00008J0D01*
G01*
X039115Y036191D02*
G03*
X039115Y036191I-00008J0D01*
G01*
X008446Y027188D02*
G03*
X008446Y027188I-00008J0D01*
G01*
X023013Y033278D02*
G03*
X023013Y033278I-00008J0D01*
G01*
X033308Y028858D02*
G03*
X033308Y028858I-00008J0D01*
G01*
X030481Y019774D02*
G03*
X030481Y019774I-00008J0D01*
G01*
X026724Y019282D02*
G03*
X026724Y019282I-00008J0D01*
G01*
X041517Y018297D02*
G03*
X041517Y018297I-00008J0D01*
G01*
X038387Y026683D02*
G03*
X038387Y026683I-00008J0D01*
G01*
X038702Y025197D02*
G03*
X038702Y025197I-00008J0D01*
G01*
X03386Y029843D02*
G03*
X03386Y029843I-00008J0D01*
G01*
X03819Y025433D02*
G03*
X03819Y025433I-00008J0D01*
G01*
X040671Y018858D02*
G03*
X040671Y018858I-00008J0D01*
G01*
X040322Y017858D02*
G03*
X040322Y017858I-00008J0D01*
G01*
X040257Y016841D02*
G03*
X040257Y016841I-00008J0D01*
G01*
X044509Y020482D02*
G03*
X044509Y020482I-00008J0D01*
G01*
X044736Y019774D02*
G03*
X044736Y019774I-00008J0D01*
G01*
X044962Y019006D02*
G03*
X044962Y019006I-00008J0D01*
G01*
X045749Y017441D02*
G03*
X045749Y017441I-00008J0D01*
G01*
X045277Y01812D02*
G03*
X045277Y01812I-00008J0D01*
G01*
X031556Y0169D02*
G03*
X031556Y0169I-00008J0D01*
G01*
X030661Y012579D02*
G03*
X030661Y012579I-00008J0D01*
G01*
X031012Y015384D02*
G03*
X031012Y015384I-00008J0D01*
G01*
X031468Y01313D02*
G03*
X031468Y01313I-00008J0D01*
G01*
X031586Y015354D02*
G03*
X031586Y015354I-00008J0D01*
G01*
X021478Y014646D02*
G03*
X021478Y014646I-00008J0D01*
G01*
X025188Y013661D02*
G03*
X025188Y013661I-00008J0D01*
G01*
X02198Y014606D02*
G03*
X02198Y014606I-00008J0D01*
G01*
X023605Y011733D02*
G03*
X023605Y011733I-00008J0D01*
G01*
X024289Y012126D02*
G03*
X024289Y012126I-00008J0D01*
G01*
X031487Y019656D02*
G03*
X031487Y019656I-00008J0D01*
G01*
X031989Y019695D02*
G03*
X031989Y019695I-00008J0D01*
G01*
X032862Y019685D02*
G03*
X032862Y019685I-00008J0D01*
G01*
X011054Y019291D02*
G03*
X011054Y019291I-00008J0D01*
G01*
X001537Y010591D02*
G03*
X001537Y010591I-00008J0D01*
G01*
X036458Y026752D02*
G03*
X036458Y026752I-00008J0D01*
G01*
X032797Y027205D02*
G03*
X032797Y027205I-00008J0D01*
G01*
X034339Y023213D02*
G03*
X034339Y023213I-00008J0D01*
G01*
X03283Y022333D02*
G03*
X03283Y022333I-00008J0D01*
G01*
X033498Y026801D02*
G03*
X033498Y026801I-00008J0D01*
G01*
X033584Y025285D02*
G03*
X033584Y025285I-00008J0D01*
G01*
X033751Y017608D02*
G03*
X033751Y017608I-00008J0D01*
G01*
X034216Y016004D02*
G03*
X034216Y016004I-00008J0D01*
G01*
X038023Y020955D02*
G03*
X038023Y020955I-00008J0D01*
G01*
X038052Y025683D02*
G03*
X038052Y025683I-00008J0D01*
G01*
X04009Y02627D02*
G03*
X04009Y02627I-00008J0D01*
G01*
X037344Y026535D02*
G03*
X037344Y026535I-00008J0D01*
G01*
X034432Y024883D02*
G03*
X034432Y024883I-00008J0D01*
G01*
X033945Y026273D02*
G03*
X033945Y026273I-00008J0D01*
G01*
X032862Y026457D02*
G03*
X032862Y026457I-00008J0D01*
G01*
X035306Y025089D02*
G03*
X035306Y025089I-00008J0D01*
G01*
X034568Y028435D02*
G03*
X034568Y028435I-00008J0D01*
G01*
X032491Y032904D02*
G03*
X032491Y032904I-00008J0D01*
G01*
X0332Y033031D02*
G03*
X0332Y033031I-00008J0D01*
G01*
X032865Y032047D02*
G03*
X032865Y032047I-00008J0D01*
G01*
X03318Y030177D02*
G03*
X03318Y030177I-00008J0D01*
G01*
X031684Y027018D02*
G03*
X031684Y027018I-00008J0D01*
G01*
X038043Y027766D02*
G03*
X038043Y027766I-00008J0D01*
G01*
X038564Y03002D02*
G03*
X038564Y03002I-00008J0D01*
G01*
X037934Y033031D02*
G03*
X037934Y033031I-00008J0D01*
G01*
X029017Y026024D02*
G03*
X029017Y026024I-00008J0D01*
G01*
X028172Y025011D02*
G03*
X028172Y025011I-00008J0D01*
G01*
X03133Y022441D02*
G03*
X03133Y022441I-00008J0D01*
G01*
X037718Y007083D02*
G03*
X037718Y007083I-00008J0D01*
G01*
X026379Y021614D02*
G03*
X026379Y021614I-00008J0D01*
G01*
X007009Y013543D02*
G03*
X007009Y013543I-00008J0D01*
G01*
X005356Y035939D02*
G03*
X005356Y035939I-00008J0D01*
G01*
X002442Y035945D02*
G03*
X002442Y035945I-00008J0D01*
G01*
X001576Y036043D02*
G03*
X001576Y036043I-00008J0D01*
G01*
X003308Y036024D02*
G03*
X003308Y036024I-00008J0D01*
G01*
X004096Y036043D02*
G03*
X004096Y036043I-00008J0D01*
G01*
X028112Y026654D02*
G03*
X028112Y026654I-00008J0D01*
G01*
X040867Y009882D02*
G03*
X040867Y009882I-00008J0D01*
G01*
X046064Y027008D02*
G03*
X046064Y027008I-00008J0D01*
G01*
X029214Y022868D02*
G03*
X029214Y022868I-00008J0D01*
G01*
X007442Y022835D02*
G03*
X007442Y022835I-00008J0D01*
G01*
X016419Y014734D02*
G03*
X016419Y014734I-00008J0D01*
G01*
X018899Y013071D02*
G03*
X018899Y013071I-00008J0D01*
G01*
D138*
X003465Y02188D02*
G03*
X003465Y02188I-00004J0D01*
G01*
X003977D02*
G03*
X003977Y02188I-00004J0D01*
G01*
X040463Y025683D02*
G03*
X040463Y025683I-00004J0D01*
G01*
X039253Y025965D02*
G03*
X039253Y025965I-00004J0D01*
G01*
X038849Y025837D02*
G03*
X038849Y025837I-00004J0D01*
G01*
X034874Y022619D02*
G03*
X034874Y022619I-00004J0D01*
G01*
X034883Y022352D02*
G03*
X034883Y022352I-00004J0D01*
G01*
X034618Y022176D02*
G03*
X034618Y022176I-00004J0D01*
G01*
X036262Y023269D02*
G03*
X036262Y023269I-00004J0D01*
G01*
X002363Y011339D02*
G03*
X002363Y011339I-00004J0D01*
G01*
X039593Y019872D02*
G03*
X039593Y019872I-00004J0D01*
G01*
X038499Y018785D02*
G03*
X038499Y018785I-00004J0D01*
G01*
X019026Y02811D02*
G03*
X019026Y02811I-00004J0D01*
G01*
X032284Y024813D02*
G03*
X032284Y024813I-00004J0D01*
G01*
X034843Y019409D02*
G03*
X034843Y019409I-00004J0D01*
G01*
X039823Y020374D02*
G03*
X039823Y020374I-00004J0D01*
G01*
X032623Y017057D02*
G03*
X032623Y017057I-00004J0D01*
G01*
X032333Y03064D02*
G03*
X032333Y03064I-00004J0D01*
G01*
X030886Y026707D02*
G03*
X030886Y026707I-00004J0D01*
G01*
X004764Y02189D02*
G03*
X004764Y02189I-00004J0D01*
G01*
X00752Y002362D02*
G03*
X00752Y002362I-00004J0D01*
G01*
X007314Y026801D02*
G03*
X007314Y026801I-00004J0D01*
G01*
X013298Y026654D02*
G03*
X013298Y026654I-00004J0D01*
G01*
X012421Y028521D02*
G03*
X012421Y028521I-00004J0D01*
G01*
X013158Y028071D02*
G03*
X013158Y028071I-00004J0D01*
G01*
X013286Y027611D02*
G03*
X013286Y027611I-00004J0D01*
G01*
X017757Y025984D02*
G03*
X017757Y025984I-00004J0D01*
G01*
X023662Y005906D02*
G03*
X023662Y005906I-00004J0D01*
G01*
X000867Y03627D02*
G03*
X000867Y03627I-00004J0D01*
G01*
X000611Y033907D02*
G03*
X000611Y033907I-00004J0D01*
G01*
X033461Y023238D02*
G03*
X033461Y023238I-00004J0D01*
G01*
X033849Y023967D02*
G03*
X033849Y023967I-00004J0D01*
G01*
X006024Y02498D02*
G03*
X006024Y02498I-00004J0D01*
G01*
X042198Y035218D02*
G03*
X042198Y035218I-00004J0D01*
G01*
X042978Y034714D02*
G03*
X042978Y034714I-00004J0D01*
G01*
X043221Y034834D02*
G03*
X043221Y034834I-00004J0D01*
G01*
X005999Y02581D02*
G03*
X005999Y02581I-00004J0D01*
G01*
X005591Y012638D02*
G03*
X005591Y012638I-00004J0D01*
G01*
X004636Y016693D02*
G03*
X004636Y016693I-00004J0D01*
G01*
X00505Y019745D02*
G03*
X00505Y019745I-00004J0D01*
G01*
X008337Y021929D02*
G03*
X008337Y021929I-00004J0D01*
G01*
X027343Y023514D02*
G03*
X027343Y023514I-00004J0D01*
G01*
X029164Y02373D02*
G03*
X029164Y02373I-00004J0D01*
G01*
X030316Y025994D02*
G03*
X030316Y025994I-00004J0D01*
G01*
X044292Y034291D02*
G03*
X044292Y034291I-00004J0D01*
G01*
X042934Y034104D02*
G03*
X042934Y034104I-00004J0D01*
G01*
X042097Y034557D02*
G03*
X042097Y034557I-00004J0D01*
G01*
X045249Y036458D02*
G03*
X045249Y036458I-00004J0D01*
G01*
X043721Y036358D02*
G03*
X043721Y036358I-00004J0D01*
G01*
X043731Y038386D02*
G03*
X043731Y038386I-00004J0D01*
G01*
X042127D02*
G03*
X042127Y038386I-00004J0D01*
G01*
X031694Y025404D02*
G03*
X031694Y025404I-00004J0D01*
G01*
X032068Y025561D02*
G03*
X032068Y025561I-00004J0D01*
G01*
X036469Y027856D02*
G03*
X036469Y027856I-00004J0D01*
G01*
X035965Y027736D02*
G03*
X035965Y027736I-00004J0D01*
G01*
X034223Y024154D02*
G03*
X034223Y024154I-00004J0D01*
G01*
X035148Y024183D02*
G03*
X035148Y024183I-00004J0D01*
G01*
X03189Y022333D02*
G03*
X03189Y022333I-00004J0D01*
G01*
X026762Y022362D02*
G03*
X026762Y022362I-00004J0D01*
G01*
X03318Y022795D02*
G03*
X03318Y022795I-00004J0D01*
G01*
X04316Y020709D02*
G03*
X04316Y020709I-00004J0D01*
G01*
X036418Y021181D02*
G03*
X036418Y021181I-00004J0D01*
G01*
X040916Y019646D02*
G03*
X040916Y019646I-00004J0D01*
G01*
X001556Y028563D02*
G03*
X001556Y028563I-00004J0D01*
G01*
X008751Y030778D02*
G03*
X008751Y030778I-00004J0D01*
G01*
X008735Y031476D02*
G03*
X008735Y031476I-00004J0D01*
G01*
X012077Y014439D02*
G03*
X012077Y014439I-00004J0D01*
G01*
X017993Y015187D02*
G03*
X017993Y015187I-00004J0D01*
G01*
X01821Y014193D02*
G03*
X01821Y014193I-00004J0D01*
G01*
X031664Y024331D02*
G03*
X031664Y024331I-00004J0D01*
G01*
X032255Y023996D02*
G03*
X032255Y023996I-00004J0D01*
G01*
X031597Y023583D02*
G03*
X031597Y023583I-00004J0D01*
G01*
X02823Y023712D02*
G03*
X02823Y023712I-00004J0D01*
G01*
X029696Y027049D02*
G03*
X029696Y027049I-00004J0D01*
G01*
X030324Y025049D02*
G03*
X030324Y025049I-00004J0D01*
G01*
X030936Y021614D02*
G03*
X030936Y021614I-00004J0D01*
G01*
X023367Y02188D02*
G03*
X023367Y02188I-00004J0D01*
G01*
X026536Y022028D02*
G03*
X026536Y022028I-00004J0D01*
G01*
X022796Y033041D02*
G03*
X022796Y033041I-00004J0D01*
G01*
X013377Y029075D02*
G03*
X013377Y029075I-00004J0D01*
G01*
X026418Y025034D02*
G03*
X026418Y025034I-00004J0D01*
G01*
X03051Y025783D02*
G03*
X03051Y025783I-00004J0D01*
G01*
X027402Y025817D02*
G03*
X027402Y025817I-00004J0D01*
G01*
X038564Y012293D02*
G03*
X038564Y012293I-00004J0D01*
G01*
X03877Y013199D02*
G03*
X03877Y013199I-00004J0D01*
G01*
X037038Y015915D02*
G03*
X037038Y015915I-00004J0D01*
G01*
X038583Y017913D02*
G03*
X038583Y017913I-00004J0D01*
G01*
X034951Y021024D02*
G03*
X034951Y021024I-00004J0D01*
G01*
X033536Y022127D02*
G03*
X033536Y022127I-00004J0D01*
G01*
X036078Y023691D02*
G03*
X036078Y023691I-00004J0D01*
G01*
X037749Y020818D02*
G03*
X037749Y020818I-00004J0D01*
G01*
X040827Y004764D02*
G03*
X040827Y004764I-00004J0D01*
G01*
X041103Y003868D02*
G03*
X041103Y003868I-00004J0D01*
G01*
X009873Y01875D02*
G03*
X009873Y01875I-00004J0D01*
G01*
X046625Y033366D02*
G03*
X046625Y033366I-00004J0D01*
G01*
X04006Y034065D02*
G03*
X04006Y034065I-00004J0D01*
G01*
X037471Y034262D02*
G03*
X037471Y034262I-00004J0D01*
G01*
X040178Y035522D02*
G03*
X040178Y035522I-00004J0D01*
G01*
X041989Y029656D02*
G03*
X041989Y029656I-00004J0D01*
G01*
X041516Y028661D02*
G03*
X041516Y028661I-00004J0D01*
G01*
X043879Y027894D02*
G03*
X043879Y027894I-00004J0D01*
G01*
X041959Y027874D02*
G03*
X041959Y027874I-00004J0D01*
G01*
X039115Y034695D02*
G03*
X039115Y034695I-00004J0D01*
G01*
X044855Y035947D02*
G03*
X044855Y035947I-00004J0D01*
G01*
X044075Y035699D02*
G03*
X044075Y035699I-00004J0D01*
G01*
X044823Y035689D02*
G03*
X044823Y035689I-00004J0D01*
G01*
X04393Y035927D02*
G03*
X04393Y035927I-00004J0D01*
G01*
X045188Y03253D02*
G03*
X045188Y03253I-00004J0D01*
G01*
X044066Y035413D02*
G03*
X044066Y035413I-00004J0D01*
G01*
X042796Y03252D02*
G03*
X042796Y03252I-00004J0D01*
G01*
X041241Y03251D02*
G03*
X041241Y03251I-00004J0D01*
G01*
X04382Y031368D02*
G03*
X04382Y031368I-00004J0D01*
G01*
X043652Y031752D02*
G03*
X043652Y031752I-00004J0D01*
G01*
X040888Y035257D02*
G03*
X040888Y035257I-00004J0D01*
G01*
X04268Y035415D02*
G03*
X04268Y035415I-00004J0D01*
G01*
X040808Y021929D02*
G03*
X040808Y021929I-00004J0D01*
G01*
X040463Y034872D02*
G03*
X040463Y034872I-00004J0D01*
G01*
X037944Y035807D02*
G03*
X037944Y035807I-00004J0D01*
G01*
X039075Y036191D02*
G03*
X039075Y036191I-00004J0D01*
G01*
X008406Y027188D02*
G03*
X008406Y027188I-00004J0D01*
G01*
X022973Y033278D02*
G03*
X022973Y033278I-00004J0D01*
G01*
X033268Y028858D02*
G03*
X033268Y028858I-00004J0D01*
G01*
X030441Y019774D02*
G03*
X030441Y019774I-00004J0D01*
G01*
X026684Y019282D02*
G03*
X026684Y019282I-00004J0D01*
G01*
X041477Y018297D02*
G03*
X041477Y018297I-00004J0D01*
G01*
X038347Y026683D02*
G03*
X038347Y026683I-00004J0D01*
G01*
X038662Y025197D02*
G03*
X038662Y025197I-00004J0D01*
G01*
X03382Y029843D02*
G03*
X03382Y029843I-00004J0D01*
G01*
X03815Y025433D02*
G03*
X03815Y025433I-00004J0D01*
G01*
X040631Y018858D02*
G03*
X040631Y018858I-00004J0D01*
G01*
X040282Y017858D02*
G03*
X040282Y017858I-00004J0D01*
G01*
X040217Y016841D02*
G03*
X040217Y016841I-00004J0D01*
G01*
X044469Y020482D02*
G03*
X044469Y020482I-00004J0D01*
G01*
X044696Y019774D02*
G03*
X044696Y019774I-00004J0D01*
G01*
X044922Y019006D02*
G03*
X044922Y019006I-00004J0D01*
G01*
X045709Y017441D02*
G03*
X045709Y017441I-00004J0D01*
G01*
X045237Y01812D02*
G03*
X045237Y01812I-00004J0D01*
G01*
X031516Y0169D02*
G03*
X031516Y0169I-00004J0D01*
G01*
X030621Y012579D02*
G03*
X030621Y012579I-00004J0D01*
G01*
X030972Y015384D02*
G03*
X030972Y015384I-00004J0D01*
G01*
X031428Y01313D02*
G03*
X031428Y01313I-00004J0D01*
G01*
X031546Y015354D02*
G03*
X031546Y015354I-00004J0D01*
G01*
X021438Y014646D02*
G03*
X021438Y014646I-00004J0D01*
G01*
X025148Y013661D02*
G03*
X025148Y013661I-00004J0D01*
G01*
X02194Y014606D02*
G03*
X02194Y014606I-00004J0D01*
G01*
X023565Y011733D02*
G03*
X023565Y011733I-00004J0D01*
G01*
X024249Y012126D02*
G03*
X024249Y012126I-00004J0D01*
G01*
X031447Y019656D02*
G03*
X031447Y019656I-00004J0D01*
G01*
X031949Y019695D02*
G03*
X031949Y019695I-00004J0D01*
G01*
X032822Y019685D02*
G03*
X032822Y019685I-00004J0D01*
G01*
X011014Y019291D02*
G03*
X011014Y019291I-00004J0D01*
G01*
X001497Y010591D02*
G03*
X001497Y010591I-00004J0D01*
G01*
X036418Y026752D02*
G03*
X036418Y026752I-00004J0D01*
G01*
X032757Y027205D02*
G03*
X032757Y027205I-00004J0D01*
G01*
X034299Y023213D02*
G03*
X034299Y023213I-00004J0D01*
G01*
X03279Y022333D02*
G03*
X03279Y022333I-00004J0D01*
G01*
X033458Y026801D02*
G03*
X033458Y026801I-00004J0D01*
G01*
X033544Y025285D02*
G03*
X033544Y025285I-00004J0D01*
G01*
X033711Y017608D02*
G03*
X033711Y017608I-00004J0D01*
G01*
X034176Y016004D02*
G03*
X034176Y016004I-00004J0D01*
G01*
X037983Y020955D02*
G03*
X037983Y020955I-00004J0D01*
G01*
X038012Y025683D02*
G03*
X038012Y025683I-00004J0D01*
G01*
X04005Y02627D02*
G03*
X04005Y02627I-00004J0D01*
G01*
X037304Y026535D02*
G03*
X037304Y026535I-00004J0D01*
G01*
X034392Y024883D02*
G03*
X034392Y024883I-00004J0D01*
G01*
X033905Y026273D02*
G03*
X033905Y026273I-00004J0D01*
G01*
X032822Y026457D02*
G03*
X032822Y026457I-00004J0D01*
G01*
X035266Y025089D02*
G03*
X035266Y025089I-00004J0D01*
G01*
X034528Y028435D02*
G03*
X034528Y028435I-00004J0D01*
G01*
X032451Y032904D02*
G03*
X032451Y032904I-00004J0D01*
G01*
X03316Y033031D02*
G03*
X03316Y033031I-00004J0D01*
G01*
X032825Y032047D02*
G03*
X032825Y032047I-00004J0D01*
G01*
X03314Y030177D02*
G03*
X03314Y030177I-00004J0D01*
G01*
X031644Y027018D02*
G03*
X031644Y027018I-00004J0D01*
G01*
X038003Y027766D02*
G03*
X038003Y027766I-00004J0D01*
G01*
X038524Y03002D02*
G03*
X038524Y03002I-00004J0D01*
G01*
X037894Y033031D02*
G03*
X037894Y033031I-00004J0D01*
G01*
X028977Y026024D02*
G03*
X028977Y026024I-00004J0D01*
G01*
X028132Y025011D02*
G03*
X028132Y025011I-00004J0D01*
G01*
X03129Y022441D02*
G03*
X03129Y022441I-00004J0D01*
G01*
X037678Y007083D02*
G03*
X037678Y007083I-00004J0D01*
G01*
X026339Y021614D02*
G03*
X026339Y021614I-00004J0D01*
G01*
X006969Y013543D02*
G03*
X006969Y013543I-00004J0D01*
G01*
X005316Y035939D02*
G03*
X005316Y035939I-00004J0D01*
G01*
X002402Y035945D02*
G03*
X002402Y035945I-00004J0D01*
G01*
X001536Y036043D02*
G03*
X001536Y036043I-00004J0D01*
G01*
X003268Y036024D02*
G03*
X003268Y036024I-00004J0D01*
G01*
X004056Y036043D02*
G03*
X004056Y036043I-00004J0D01*
G01*
X028071Y026654D02*
G03*
X028071Y026654I-00004J0D01*
G01*
X040827Y009882D02*
G03*
X040827Y009882I-00004J0D01*
G01*
X046024Y027008D02*
G03*
X046024Y027008I-00004J0D01*
G01*
X029174Y022868D02*
G03*
X029174Y022868I-00004J0D01*
G01*
X007402Y022835D02*
G03*
X007402Y022835I-00004J0D01*
G01*
X016379Y014734D02*
G03*
X016379Y014734I-00004J0D01*
G01*
X018859Y013071D02*
G03*
X018859Y013071I-00004J0D01*
G01*
M02*
